<svg xmlns="http://www.w3.org/2000/svg" viewBox="0 0 260 32" preserveAspectRatio="none">
  <g fill="none" stroke="#C9A84C" stroke-width="0.7" stroke-linecap="round">
    <path d="M0 16 C16 6, 32 6, 48 16 C64 26, 80 26, 96 16 C112 6, 128 6, 144 16 C160 26, 176 26, 192 16 C208 6, 224 6, 240 16 C248 22, 254 22, 260 16"/>
    <path d="M0 20 C20 12, 40 12, 60 20 C80 28, 100 28, 120 20 C140 12, 160 12, 180 20 C200 28, 220 28, 240 20" opacity="0.55"/>
    <circle cx="48" cy="16" r="2" fill="#FBF6F0" stroke="#C9A84C" stroke-width="0.55"/>
    <circle cx="96" cy="16" r="2" fill="#FBF6F0" stroke="#C9A84C" stroke-width="0.55"/>
    <circle cx="144" cy="16" r="2" fill="#FBF6F0" stroke="#C9A84C" stroke-width="0.55"/>
    <circle cx="192" cy="16" r="2" fill="#FBF6F0" stroke="#C9A84C" stroke-width="0.55"/>
    <circle cx="240" cy="16" r="2" fill="#FBF6F0" stroke="#C9A84C" stroke-width="0.55"/>
    <!-- f1rf1r alt -->
    <path d="M12 24 L14 28 L12 32 M36 24 L38 28 L36 32 M60 24 L62 28 L60 32 M84 24 L86 28 L84 32 M108 24 L110 28 L108 32 M132 24 L134 28 L132 32 M156 24 L158 28 L156 32 M180 24 L182 28 L180 32 M204 24 L206 28 L204 32 M228 24 L230 28 L228 32" opacity="0.45"/>
  </g>
</svg>
