<svg xmlns="http://www.w3.org/2000/svg" viewBox="0 0 100 100">
  <defs>
    <pattern id="laceDot" width="4" height="4" patternUnits="userSpaceOnUse">
      <circle cx="2" cy="2" r="0.6" fill="#C9A84C" opacity="0.35"/>
    </pattern>
  </defs>
  <g fill="none" stroke="#C9A84C" stroke-width="0.75" stroke-linecap="round" stroke-linejoin="round">
    <!-- dantel k÷_e  scroll motif -->
    <path d="M4 4 C20 4, 28 12, 28 28 C28 12, 36 4, 52 4" opacity="0.85"/>
    <path d="M4 4 C4 20, 12 28, 28 28 C12 28, 4 36, 4 52" opacity="0.85"/>
    <path d="M10 10 C18 10, 22 14, 22 22 C22 14, 26 10, 34 10" opacity="0.65"/>
    <path d="M10 10 C10 18, 14 22, 22 22 C14 22, 10 26, 10 34" opacity="0.65"/>
    <path d="M16 16 C20 16, 22 18, 22 22 C22 18, 24 16, 28 16" opacity="0.5"/>
    <!-- oyma delikler -->
    <circle cx="22" cy="22" r="2.2" fill="#FBF6F0" stroke="#C9A84C" stroke-width="0.6"/>
    <circle cx="34" cy="10" r="1.6" fill="#FBF6F0" stroke="#C9A84C" stroke-width="0.5"/>
    <circle cx="10" cy="34" r="1.6" fill="#FBF6F0" stroke="#C9A84C" stroke-width="0.5"/>
    <circle cx="40" cy="22" r="1.2" fill="#FBF6F0" stroke="#C9A84C" stroke-width="0.45"/>
    <circle cx="22" cy="40" r="1.2" fill="#FBF6F0" stroke="#C9A84C" stroke-width="0.45"/>
    <!-- f1rf1r kenar -->
    <path d="M52 4 C48 8, 46 12, 48 16 C44 14, 40 16, 38 20" opacity="0.55"/>
    <path d="M4 52 C8 48, 12 46, 16 48 C14 44, 16 40, 20 38" opacity="0.55"/>
    <!-- iþ s³s -->
    <path d="M28 28 C32 32, 36 36, 42 42" stroke-width="0.5" opacity="0.4"/>
    <path d="M28 28 C24 32, 20 36, 14 42" stroke-width="0.5" opacity="0.4"/>
  </g>
  <rect width="100" height="100" fill="url(#laceDot)" opacity="0.15"/>
</svg>
